<?xml version="1.0" encoding="UTF-8"?>
<svg xmlns="http://www.w3.org/2000/svg" xmlns:xlink="http://www.w3.org/1999/xlink" width="1328.4113" height="399.9997" viewBox="0 0 1328.4113 399.9997">
<defs>
<clipPath id="clip-0">
<path clip-rule="nonzero" d="M 0 110 L 289 110 L 289 399.910156 L 0 399.910156 Z M 0 110 "/>
</clipPath>
<clipPath id="clip-1">
<path clip-rule="nonzero" d="M 922 0.0898438 L 991 0.0898438 L 991 394 L 922 394 Z M 922 0.0898438 "/>
</clipPath>
<clipPath id="clip-2">
<path clip-rule="nonzero" d="M 1038 110 L 1327.824219 110 L 1327.824219 399.910156 L 1038 399.910156 Z M 1038 110 "/>
</clipPath>
<clipPath id="clip-3">
<path clip-rule="nonzero" d="M 587 115 L 863 115 L 863 399.910156 L 587 399.910156 Z M 587 115 "/>
</clipPath>
</defs>
<g clip-path="url(#clip-0)">
<path fill-rule="nonzero" fill="#FFFFFF" fill-opacity="1" d="M 68.023438 255.027344 C 68.023438 297.261719 93.363281 336.679688 143.480469 336.679688 C 193.601562 336.679688 218.941406 297.261719 218.941406 255.027344 C 218.941406 213.355469 189.65625 172.808594 143.480469 172.808594 C 93.925781 172.808594 68.023438 213.355469 68.023438 255.027344 Z M 288.207031 255.027344 C 288.207031 334.988281 233.582031 399.75 143.480469 399.75 C 53.378906 399.75 -0.679688 334.988281 -0.679688 255.027344 C -0.679688 175.625 54.507812 110.300781 142.917969 110.300781 C 231.328125 110.300781 288.207031 175.625 288.207031 255.027344 "/>
</g>
<path fill-rule="nonzero" fill="#FFFFFF" fill-opacity="1" d="M 399.128906 115.933594 L 404.199219 148.03125 C 425.597656 113.679688 454.316406 108.613281 482.472656 108.613281 C 511.191406 108.613281 538.785156 119.875 553.992188 135.082031 L 523.019531 194.769531 C 508.941406 182.945312 495.988281 176.75 473.460938 176.75 C 437.421875 176.75 404.199219 195.898438 404.199219 247.140625 L 404.199219 393.558594 L 335.496094 393.558594 L 335.496094 115.933594 Z M 399.128906 115.933594 "/>
<g clip-path="url(#clip-1)">
<path fill-rule="nonzero" fill="#FFFFFF" fill-opacity="1" d="M 990.957031 393.558594 L 922.820312 393.558594 L 922.820312 -0.0703125 L 990.957031 -0.0703125 Z M 990.957031 393.558594 "/>
</g>
<g clip-path="url(#clip-2)">
<path fill-rule="nonzero" fill="#FFFFFF" fill-opacity="1" d="M 1106.957031 255.027344 C 1106.957031 297.261719 1132.296875 336.679688 1182.417969 336.679688 C 1232.535156 336.679688 1257.878906 297.261719 1257.878906 255.027344 C 1257.878906 213.355469 1228.59375 172.808594 1182.417969 172.808594 C 1132.859375 172.808594 1106.957031 213.355469 1106.957031 255.027344 Z M 1327.140625 255.027344 C 1327.140625 334.988281 1272.519531 399.75 1182.417969 399.75 C 1092.316406 399.75 1038.257812 334.988281 1038.257812 255.027344 C 1038.257812 175.625 1093.441406 110.300781 1181.851562 110.300781 C 1270.265625 110.300781 1327.140625 175.625 1327.140625 255.027344 "/>
</g>
<path fill-rule="nonzero" fill="#FFFFFF" fill-opacity="1" d="M 272.625 60.84375 C 272.625 81.957031 255.503906 99.078125 234.390625 99.078125 C 213.273438 99.078125 196.15625 81.957031 196.15625 60.84375 C 196.15625 39.726562 213.273438 22.609375 234.390625 22.609375 C 255.503906 22.609375 272.625 39.726562 272.625 60.84375 "/>
<g clip-path="url(#clip-3)">
<path fill-rule="nonzero" fill="#FFFFFF" fill-opacity="1" d="M 725.796875 399.75 C 777.765625 399.75 817.90625 378.191406 842.589844 344.609375 C 855.273438 322.902344 862.515625 295.042969 862.515625 261.785156 L 862.515625 115.933594 L 793.8125 115.933594 L 793.8125 261.222656 C 793.8125 303.457031 770.722656 335.554688 726.800781 335.554688 C 726.152344 335.554688 725.515625 335.519531 724.875 335.503906 C 724.867188 335.503906 724.863281 335.503906 724.855469 335.503906 C 724.851562 335.503906 724.847656 335.503906 724.839844 335.503906 C 724.199219 335.519531 723.566406 335.554688 722.914062 335.554688 C 678.992188 335.554688 655.902344 303.457031 655.902344 261.222656 L 655.902344 115.933594 L 587.199219 115.933594 L 587.199219 261.785156 C 587.199219 287.066406 591.390625 309.222656 598.964844 327.941406 C 621.632812 370.890625 665.671875 399.75 725.796875 399.75 "/>
</g>
</svg>
